<svg width="21" height="21" viewBox="0 0 21 21" fill="none" xmlns="http://www.w3.org/2000/svg">
<g id="Iconly/Light/Ticket Star">
<g id="Ticket Star">
<path id="Stroke 1" fill-rule="evenodd" clip-rule="evenodd" d="M15.0685 17.0288C16.6293 17.0288 17.8951 15.7638 17.896 14.203V14.2013V11.9513C16.8651 11.9513 16.0301 11.1163 16.0293 10.0855C16.0293 9.05548 16.8643 8.21965 17.8951 8.21965H17.896V5.96965C17.8976 4.40798 16.6335 3.14132 15.0726 3.13965H15.0676H5.30764C3.74598 3.13965 2.48014 4.40465 2.47931 5.96632V5.96715V8.29215C3.47431 8.25715 4.30848 9.03548 4.34348 10.0305C4.34431 10.0488 4.34514 10.0671 4.34514 10.0855C4.34598 11.1146 3.51348 11.9496 2.48431 11.9513H2.47931V14.2013C2.47848 15.7621 3.74431 17.0288 5.30514 17.0288H5.30598H15.0685Z" stroke="#8B8B8B" stroke-width="1.5" stroke-linecap="round" stroke-linejoin="round"/>
<path id="Stroke 3" fill-rule="evenodd" clip-rule="evenodd" d="M10.4969 7.56701L11.0102 8.60618C11.0602 8.70785 11.1569 8.77868 11.2694 8.79535L12.4169 8.96285C12.7011 9.00451 12.8136 9.35285 12.6086 9.55201L11.7786 10.3603C11.6969 10.4395 11.6602 10.5537 11.6786 10.6662L11.8744 11.8078C11.9227 12.0903 11.6269 12.3053 11.3736 12.172L10.3477 11.6328C10.2469 11.5795 10.1269 11.5795 10.0261 11.6328L9.00105 12.172C8.74689 12.3053 8.45105 12.0903 8.49939 11.8078L8.69522 10.6662C8.71439 10.5537 8.67689 10.4395 8.59522 10.3603L7.76605 9.55201C7.56105 9.35285 7.67355 9.00451 7.95689 8.96285L9.10439 8.79535C9.21689 8.77868 9.31439 8.70785 9.36439 8.60618L9.87689 7.56701C10.0036 7.31035 10.3702 7.31035 10.4969 7.56701Z" stroke="#8B8B8B" stroke-width="1.5" stroke-linecap="round" stroke-linejoin="round"/>
</g>
</g>
</svg>
