<svg width="21" height="21" viewBox="0 0 21 21" fill="none" xmlns="http://www.w3.org/2000/svg">
<g id="Iconly/Light/Ticket Star">
<g id="Ticket Star">
<path id="Stroke 1" fill-rule="evenodd" clip-rule="evenodd" d="M15.5687 17.0288C17.1295 17.0288 18.3953 15.7638 18.3962 14.203V14.2013V11.9513C17.3653 11.9513 16.5303 11.1163 16.5295 10.0855C16.5295 9.05548 17.3645 8.21965 18.3953 8.21965H18.3962V5.96965C18.3978 4.40798 17.1337 3.14132 15.5728 3.13965H15.5678H5.80783C4.24616 3.13965 2.98033 4.40465 2.97949 5.96632V5.96715V8.29215C3.97449 8.25715 4.80866 9.03548 4.84366 10.0305C4.84449 10.0488 4.84533 10.0671 4.84533 10.0855C4.84616 11.1146 4.01366 11.9496 2.98449 11.9513H2.97949V14.2013C2.97866 15.7621 4.24449 17.0288 5.80533 17.0288H5.80616H15.5687Z" stroke="#F95421" stroke-width="1.5" stroke-linecap="round" stroke-linejoin="round"/>
<path id="Stroke 3" fill-rule="evenodd" clip-rule="evenodd" d="M10.9973 7.56701L11.5106 8.60618C11.5606 8.70785 11.6573 8.77868 11.7698 8.79535L12.9173 8.96285C13.2015 9.00451 13.314 9.35285 13.109 9.55201L12.279 10.3603C12.1973 10.4395 12.1606 10.5537 12.179 10.6662L12.3748 11.8078C12.4231 12.0903 12.1273 12.3053 11.874 12.172L10.8481 11.6328C10.7473 11.5795 10.6273 11.5795 10.5265 11.6328L9.50148 12.172C9.24731 12.3053 8.95148 12.0903 8.99981 11.8078L9.19565 10.6662C9.21481 10.5537 9.17731 10.4395 9.09565 10.3603L8.26648 9.55201C8.06148 9.35285 8.17398 9.00451 8.45731 8.96285L9.60481 8.79535C9.71731 8.77868 9.81481 8.70785 9.86481 8.60618L10.3773 7.56701C10.504 7.31035 10.8706 7.31035 10.9973 7.56701Z" stroke="#F95421" stroke-width="1.5" stroke-linecap="round" stroke-linejoin="round"/>
</g>
</g>
</svg>
