<svg width="28" height="30" viewBox="0 0 28 30" fill="none" xmlns="http://www.w3.org/2000/svg">
<path d="M9.92804 26.7458V22.6568C9.92802 21.6168 10.7759 20.7717 11.8264 20.7647H15.6745C16.7301 20.7647 17.5858 21.6119 17.5858 22.6568V22.6568V26.7585C17.5855 27.6416 18.2974 28.3633 19.1891 28.384H21.7545C24.3119 28.384 26.3851 26.3315 26.3851 23.7997V23.7997V12.1677C26.3714 11.1717 25.8991 10.2364 25.1024 9.628L16.3287 2.63102C14.7917 1.41271 12.6067 1.41271 11.0696 2.63102L2.33446 9.64069C1.53477 10.2466 1.06161 11.1835 1.05176 12.1804V23.7997C1.05176 26.3315 3.12492 28.384 5.68231 28.384H8.24771C9.16156 28.384 9.90239 27.6505 9.90239 26.7458V26.7458" stroke="white" stroke-width="2" stroke-linecap="round" stroke-linejoin="round"/>
</svg>
